<svg width="14" height="14" viewBox="0 0 14 14" fill="none" xmlns="http://www.w3.org/2000/svg">
<g id="ic:round-location-on">
<path id="Vector" d="M6.99998 1.16675C4.54998 1.16675 2.33331 3.04508 2.33331 5.95008C2.33331 7.80508 3.76248 9.98675 6.61498 12.5009C6.83665 12.6934 7.16915 12.6934 7.39081 12.5009C10.2375 9.98675 11.6666 7.80508 11.6666 5.95008C11.6666 3.04508 9.44998 1.16675 6.99998 1.16675ZM6.99998 7.00008C6.35831 7.00008 5.83331 6.47508 5.83331 5.83342C5.83331 5.19175 6.35831 4.66675 6.99998 4.66675C7.64165 4.66675 8.16665 5.19175 8.16665 5.83342C8.16665 6.47508 7.64165 7.00008 6.99998 7.00008Z" fill="#BDBDBD"/>
</g>
</svg>
